<svg xmlns="http://www.w3.org/2000/svg" viewBox="0 0 128 128" width="128" height="128">
  <defs>
    <!-- Frame Gradient (Purple) -->
    <linearGradient id="frameGrad" x1="0%" y1="0%" x2="100%" y2="100%">
      <stop offset="0%" stop-color="#c084fc" /> <!-- Purple-400 -->
      <stop offset="100%" stop-color="#9333ea" /> <!-- Purple-600 -->
    </linearGradient>
    
    <!-- Behavior Gradient (Teal) -->
    <linearGradient id="behaviorGrad" x1="0%" y1="0%" x2="100%" y2="100%">
      <stop offset="0%" stop-color="#2dd4bf" /> <!-- Teal-400 -->
      <stop offset="100%" stop-color="#0d9488" /> <!-- Teal-600 -->
    </linearGradient>
    
    <!-- Element Gradient (Gray/Slate) -->
    <linearGradient id="elementGrad" x1="0%" y1="0%" x2="100%" y2="100%">
      <stop offset="0%" stop-color="#e2e8f0" /> <!-- Slate-200 -->
      <stop offset="100%" stop-color="#94a3b8" /> <!-- Slate-400 -->
    </linearGradient>
    
    <filter id="floatShadow" x="-50%" y="-50%" width="200%" height="200%">
      <feGaussianBlur in="SourceAlpha" stdDeviation="4" />
      <feOffset dx="2" dy="4" result="offsetblur" />
      <feComponentTransfer><feFuncA type="linear" slope="0.2"/></feComponentTransfer>
      <feMerge><feMergeNode/><feMergeNode in="SourceGraphic"/></feMerge>
    </filter>
  </defs>

  <!-- Background base -->
  <rect x="14" y="14" width="100" height="100" rx="30" fill="#f8fafc" />

  <g filter="url(#floatShadow)">
    
    <!-- FRAME: Double Quotes "" -->
    <!-- Left Quote Pair -->
    <rect x="28" y="44" width="8" height="28" rx="4" fill="url(#frameGrad)" />
    <rect x="40" y="44" width="8" height="28" rx="4" fill="url(#frameGrad)" />

    <!-- Right Quote Pair -->
    <rect x="80" y="44" width="8" height="28" rx="4" fill="url(#frameGrad)" />
    <rect x="92" y="44" width="8" height="28" rx="4" fill="url(#frameGrad)" />


    <!-- COMPOSITION CORE: The Zipper / Interlock -->
    <!-- Two halves merging into a solid block -->

    <!-- Left Half (The Host/Element - Gray) -->
    <!-- Creates a zigzag mating surface on the right -->
    <path d="M 46 38 
             L 62 38 
             L 68 51 
             L 56 64 
             L 68 77 
             L 62 90 
             L 46 90 
             A 4 4 0 0 1 46 86
             L 46 42
             A 4 4 0 0 1 46 38 Z" 
          fill="url(#elementGrad)" />

    <!-- Right Half (The Behavior/Attribute - Teal) -->
    <!-- Creates a zigzag mating surface on the left -->
    <path d="M 78 38 
             L 62 38 
             L 68 51 
             L 56 64 
             L 68 77 
             L 62 90 
             L 78 90 
             A 4 4 0 0 0 78 86
             L 78 42
             A 4 4 0 0 0 78 38 Z" 
          fill="url(#behaviorGrad)" />

  </g>
</svg>