<svg xmlns="http://www.w3.org/2000/svg" viewBox="0 0 128 128" width="128" height="128">
  <defs>
    <linearGradient id="tokenGrad" x1="20" y1="20" x2="108" y2="108" gradientUnits="userSpaceOnUse">
      <stop offset="0%" stop-color="#818cf8" /> <!-- Indigo-400 -->
      <stop offset="100%" stop-color="#4f46e5" /> <!-- Indigo-600 -->
    </linearGradient>
    <filter id="floatShadow" x="-50%" y="-50%" width="200%" height="200%">
      <feGaussianBlur in="SourceAlpha" stdDeviation="4" />
      <feOffset dx="2" dy="4" result="offsetblur" />
      <feComponentTransfer><feFuncA type="linear" slope="0.2"/></feComponentTransfer>
      <feMerge><feMergeNode/><feMergeNode in="SourceGraphic"/></feMerge>
    </filter>
  </defs>

  <rect x="14" y="14" width="100" height="100" rx="30" fill="#f8fafc" />

  <g filter="url(#floatShadow)" stroke="url(#tokenGrad)" stroke-width="8" stroke-linecap="round" fill="none" stroke-linejoin="round">
    <!-- Left Brace -->
    <path d="M 50 38 C 40 38 36 42 36 52 V 58 C 36 62 32 64 28 64 C 32 64 36 66 36 70 V 76 C 36 86 40 90 50 90" />
    
    <!-- Right Brace -->
    <path d="M 78 38 C 88 38 92 42 92 52 V 58 C 92 62 96 64 100 64 C 96 64 92 66 92 70 V 76 C 92 86 88 90 78 90" />
    
    <!-- Code Dots -->
    <circle cx="56" cy="64" r="3" fill="url(#tokenGrad)" stroke="none" />
    <circle cx="64" cy="64" r="3" fill="url(#tokenGrad)" stroke="none" />
    <circle cx="72" cy="64" r="3" fill="url(#tokenGrad)" stroke="none" />
  </g>
</svg>
